<svg xmlns="http://www.w3.org/2000/svg" xmlns:xlink="http://www.w3.org/1999/xlink" width="2048" zoomAndPan="magnify" viewBox="0 0 1536 1535.999932" height="2048" preserveAspectRatio="xMidYMid meet" version="1.0"><path fill="#27db0d" d="M 758.25 143.25 L 778.5 143.25 L 810.75 144.75 L 837 147 L 866.25 150.75 L 898.5 156.75 L 921 162 L 940.5 167.25 L 962.25 174 L 986.25 182.25 L 1007.25 190.5 L 1034.25 202.5 L 1062.75 216.75 L 1080 226.5 L 1098.75 237.75 L 1119 251.25 L 1133.25 261 L 1146 270.75 L 1159.5 281.25 L 1167.75 288 L 1178.25 297 L 1186.5 304.5 L 1192.5 309.75 L 1198.5 315.75 L 1204.5 321 L 1218 334.5 L 1223.25 340.5 L 1230 347.25 L 1235.25 353.25 L 1244.25 363.75 L 1252.5 373.5 L 1260 383.25 L 1270.5 396.75 L 1279.5 409.5 L 1287.75 421.5 L 1296 434.25 L 1306.5 451.5 L 1318.5 472.5 L 1334.25 504 L 1344 525.75 L 1354.5 552.75 L 1365 583.5 L 1373.25 613.5 L 1380 642.75 L 1384.5 667.5 L 1388.25 695.25 L 1391.25 727.5 L 1392 742.5 L 1392 793.5 L 1390.5 819 L 1387.5 847.5 L 1383 877.5 L 1377 907.5 L 1369.5 936.75 L 1362.75 959.25 L 1354.5 983.25 L 1343.25 1011.75 L 1332 1036.5 L 1317 1066.5 L 1306.5 1084.5 L 1297.5 1099.5 L 1289.25 1112.25 L 1283.25 1121.25 L 1273.5 1134.75 L 1267.5 1143 L 1259.25 1153.5 L 1249.5 1165.5 L 1242.75 1173.75 L 1235.25 1182 L 1230 1188 L 1221.75 1197 L 1215.75 1203 L 1215 1204.5 L 1213.5 1204.5 L 1213.5 1206 L 1212 1206 L 1210.5 1209 L 1207.5 1212 L 1206 1212 L 1206 1213.5 L 1204.5 1213.5 L 1204.5 1215 L 1198.5 1220.25 L 1191.75 1227 L 1185.75 1232.25 L 1178.25 1239 L 1172.25 1244.25 L 1159.5 1254.75 L 1149.75 1262.25 L 1134.75 1273.5 L 1122 1282.5 L 1110.75 1290 L 1096.5 1299 L 1081.5 1308 L 1062.75 1318.5 L 1045.5 1327.5 L 1025.25 1337.25 L 1000.5 1347.75 L 974.25 1357.5 L 944.25 1367.25 L 912.75 1375.5 L 888 1380.75 L 861.75 1385.25 L 832.5 1389 L 804 1391.25 L 789 1392 L 745.5 1392 L 717.75 1390.5 L 683.25 1386.75 L 659.25 1383 L 633 1377.75 L 607.5 1371.75 L 576.75 1362.75 L 549 1353 L 522.75 1342.5 L 496.5 1330.5 L 472.5 1318.5 L 440.25 1299.75 L 421.5 1287.75 L 406.5 1277.25 L 393 1267.5 L 381 1257.75 L 374.25 1252.5 L 366 1245.75 L 354.75 1236 L 335.25 1218 L 330 1212.75 L 327 1210.5 L 327 1209 L 324.75 1208.25 L 319.5 1202.25 L 310.5 1193.25 L 305.25 1187.25 L 296.25 1177.5 L 289.5 1169.25 L 281.25 1159.5 L 261.75 1134 L 251.25 1119 L 243.75 1107.75 L 234.75 1093.5 L 224.25 1075.5 L 216.75 1062 L 207.75 1044.75 L 198.75 1026 L 188.25 1001.25 L 180.75 981.75 L 171.75 954.75 L 165 932.25 L 159.75 911.25 L 154.5 886.5 L 149.25 855 L 146.25 829.5 L 144 799.5 L 143.25 776.25 L 143.25 757.5 L 144 734.25 L 147 698.25 L 150.75 670.5 L 156 641.25 L 162.75 612 L 171.75 580.5 L 181.5 552 L 189.75 531 L 199.5 508.5 L 211.5 483.75 L 219.75 468 L 230.25 450 L 239.25 435 L 254.25 412.5 L 261.75 402 L 270 390.75 L 280.5 377.25 L 287.25 369 L 297 357.75 L 303 350.25 L 304.5 350.25 L 306 347.25 L 312.75 340.5 L 318 334.5 L 338.25 314.25 L 344.25 309 L 349.5 303.75 L 357.75 297 L 366 289.5 L 374.25 282.75 L 384.75 274.5 L 398.25 264 L 410.25 255.75 L 423 246.75 L 441 235.5 L 452.25 228.75 L 471.75 217.5 L 486.75 210 L 499.5 203.25 L 526.5 191.25 L 555.75 180 L 582.75 171 L 611.25 162.75 L 645 155.25 L 675 150 L 698.25 147 L 723.75 144.75 Z M 716.25 242.25 L 683.25 246.75 L 654.75 252 L 624.75 259.5 L 594 269.25 L 572.25 277.5 L 551.25 286.5 L 532.5 295.5 L 518.25 303 L 509.25 307.5 L 494.25 316.5 L 482.25 324 L 471 331.5 L 458.25 340.5 L 446.25 349.5 L 434.25 359.25 L 426.75 365.25 L 418.5 372.75 L 412.5 378 L 401.25 388.5 L 381.75 408 L 376.5 414 L 369.75 421.5 L 363 429.75 L 354.75 439.5 L 345 452.25 L 336.75 463.5 L 321.75 486 L 313.5 499.5 L 306 512.25 L 301.5 520.5 L 289.5 544.5 L 277.5 572.25 L 269.25 594.75 L 261 620.25 L 253.5 649.5 L 248.25 675.75 L 244.5 699.75 L 242.25 720 L 240.75 741.75 L 240.75 794.25 L 243 824.25 L 246.75 852 L 252 880.5 L 259.5 910.5 L 266.25 932.25 L 273.75 954 L 283.5 978 L 294 1000.5 L 301.5 1015.5 L 311.25 1032.75 L 321 1049.25 L 336.75 1072.5 L 347.25 1086.75 L 355.5 1097.25 L 366 1110 L 374.25 1119 L 379.5 1125 L 388.5 1134.75 L 405.75 1152 L 411.75 1157.25 L 421.5 1166.25 L 429.75 1173 L 438.75 1180.5 L 449.25 1188.75 L 462.75 1198.5 L 472.5 1205.25 L 489.75 1216.5 L 506.25 1226.25 L 524.25 1236 L 537 1242.75 L 555 1251 L 576.75 1260 L 594.75 1266.75 L 618.75 1274.25 L 647.25 1281.75 L 669 1286.25 L 696 1290.75 L 719.25 1293.75 L 719.25 242.25 Z M 716.25 242.25 " fill-opacity="1" fill-rule="nonzero"/></svg>